<svg width="427" height="216" xmlns="http://www.w3.org/2000/svg" xmlns:xlink="http://www.w3.org/1999/xlink" xml:space="preserve" overflow="hidden"><defs><clipPath id="clip0"><rect x="426" y="252" width="427" height="216"/></clipPath><clipPath id="clip1"><rect x="426" y="252" width="427" height="216"/></clipPath><clipPath id="clip2"><rect x="427" y="252" width="426" height="216"/></clipPath><clipPath id="clip3"><rect x="427" y="252" width="426" height="216"/></clipPath><clipPath id="clip4"><rect x="427" y="252" width="426" height="216"/></clipPath></defs><g clip-path="url(#clip0)" transform="translate(-426 -252)"><g clip-path="url(#clip1)"><g clip-path="url(#clip2)"><g clip-path="url(#clip3)"><g clip-path="url(#clip4)"><path d="M38.9496 156.435C33.546 147.071 30.3118 137.03 29.038 126.84 29.3565 138.772 32.4912 150.634 38.7705 161.51 59.7877 197.903 107.962 209.576 147.38 188.29 107.445 206.65 60.2853 193.385 38.9496 156.435Z" fill="#FFFFFF" fill-rule="nonzero" fill-opacity="1" transform="matrix(1.00228 0 0 1 427 252.018)"/><path d="M38.86 156.485C33.6356 147.399 30.2422 137.259 29.038 126.85 29.038 126.85 29.038 126.85 29.038 126.85 29.3764 140.195 33.3967 153.42 40.6811 164.625 55.1404 187.424 82.447 200.062 109.117 198.838 122.461 198.321 135.617 194.619 147.38 188.3 109.186 206.381 60.146 193.992 38.87 156.495L38.87 156.495ZM39.0392 156.386C60.2355 193.862 109.216 206.282 147.38 188.29 141.498 191.444 135.279 193.952 128.85 195.753 103.196 203.008 73.8291 197.614 53.7075 179.741 38.5913 166.536 29.466 146.912 29.048 126.85 29.048 126.85 29.048 126.85 29.048 126.85 30.4213 137.229 33.7749 147.35 39.0491 156.386Z" fill="#FFFFFF" fill-rule="nonzero" fill-opacity="1" transform="matrix(1.00228 0 0 1 427 252.018)"/><path d="M114.958 210.312C56.1555 210.312 8.4885 164.217 8.4885 107.355 8.4885 50.4932 56.1555 4.3985 114.958 4.3985 133.03 4.3985 150.047 8.76714 164.964 16.4595 148.534 6.28926 129.169 0.408006 108.43 0.408006 49.0104 0.408006 0.835914 48.5825 0.835914 108.002 0.835914 167.422 49.0104 215.606 108.44 215.606 134.204 215.606 157.838 206.54 176.358 191.444 159.003 203.316 137.836 210.312 114.968 210.312Z" fill="#FFFFFF" fill-rule="nonzero" fill-opacity="1" transform="matrix(1.00228 0 0 1 427 252.018)"/><path d="M114.958 211.227C66.2263 211.715 20.2112 177.184 10.0608 129.009-1.03494 80.8846 27.1871 30.5805 72.5852 12.4093 102.031 0.179124 136.751 1.63202 164.954 16.4496 121.586-10.638 61.4496-1.43299 28.2618 37.4569 9.63291 58.4343 0.0298541 86.9649 1.96042 114.938 7.59288 201.435 108.748 245.54 176.338 191.464 172.029 194.648 167.272 197.514 162.436 200.002 147.778 207.396 131.378 211.237 114.948 211.237L114.948 211.237ZM114.958 209.406C136.602 209.466 158.117 203.107 176.348 191.454 176.348 191.454 176.338 191.454 176.338 191.454 128.999 231.359 54.8419 221.288 19.7236 170.288-2.01017 140.016-6.15989 98.3791 9.15524 64.4052 34.9292 4.71694 110.161-18.6289 164.964 16.4595 97.1352-18.3702 11.056 27.2369 9.30452 105.226 7.74215 163.232 57.8472 209.964 114.958 209.406Z" fill="#FFFFFF" fill-rule="nonzero" fill-opacity="1" transform="matrix(1.00228 0 0 1 427 252.018)"/><path d="M79.2625 127.457C79.9193 127.357 80.4368 127.029 80.8149 126.472 81.1931 125.914 81.5613 125.288 81.9096 124.581L95.9311 95.0951C96.2794 94.4383 96.5978 93.8313 96.8764 93.274 97.1551 92.7168 97.2944 92.2391 97.2944 91.8311 97.2944 91.3236 97.1153 90.9753 96.767 90.7663 96.4087 90.5673 96.0306 90.418 95.6325 90.3085L95.6325 88.9452 108.44 88.9452 108.44 90.3085C108.082 90.408 107.733 90.5474 107.375 90.7265 107.017 90.9056 106.848 91.2738 106.848 91.8211 106.848 92.2291 106.937 92.6272 107.116 93.0352 107.295 93.4432 107.554 93.9706 107.912 94.6274L123.675 125.477C123.924 126.034 124.272 126.442 124.7 126.691 125.128 126.939 125.626 127.198 126.183 127.447L126.183 128.81 112.838 128.81 112.838 127.447C113.037 127.447 113.296 127.367 113.595 127.218 113.893 127.069 114.052 126.84 114.052 126.531 114.052 126.024 113.853 125.367 113.445 124.561L110.569 118.949 92.0799 118.949 89.3532 124.332C88.8457 125.397 88.5969 126.153 88.5969 126.611 88.5969 127.168 89.0746 127.447 90.0398 127.447L90.0398 128.81 79.2725 128.81 79.2725 127.447ZM107.843 113.356 101.474 99.2548 94.3488 113.356 107.843 113.356Z" fill="#FFFFFF" fill-rule="nonzero" fill-opacity="1" transform="matrix(1.00228 0 0 1 427 252.018)"/><path d="M144.981 95.4733 144.981 96.8366C143.817 96.8366 143.24 97.2148 143.24 97.9711L143.24 123.208 163.7 123.208C164.307 123.208 164.814 123.068 165.212 122.79 165.61 122.511 165.819 122.123 165.819 121.615L167.183 121.615 167.183 129.577 165.819 129.577C165.819 129.169 165.62 128.94 165.212 128.89 164.804 128.84 164.307 128.81 163.7 128.81L133.985 128.81 133.985 127.447C135.299 127.447 135.955 127.069 135.955 126.313L135.955 97.9611C135.955 97.2048 135.299 96.8267 133.985 96.8267L133.985 95.4633 144.971 95.4633Z" fill="#FFFFFF" fill-rule="nonzero" fill-opacity="1" transform="matrix(1.00228 0 0 1 427 252.018)"/><path d="M177.413 97.9711C177.413 97.5631 177.224 97.2745 176.846 97.0954 176.467 96.9162 176.079 96.8267 175.671 96.8267L175.671 95.4633 199.246 95.4633C201.167 95.4633 202.819 95.6922 204.212 96.15 205.605 96.6077 206.759 97.2247 207.695 98.0109 208.63 98.797 209.327 99.6927 209.775 100.698 210.222 101.703 210.461 102.768 210.461 103.882 210.461 104.788 210.312 105.644 210.003 106.42 209.705 107.206 209.307 107.912 208.829 108.539 208.351 109.176 207.814 109.744 207.237 110.241 206.66 110.749 206.063 111.147 205.456 111.455L205.456 111.535C206.162 111.833 206.869 112.241 207.575 112.749 208.282 113.256 208.919 113.863 209.466 114.57 210.023 115.276 210.481 116.083 210.829 116.998 211.178 117.904 211.357 118.889 211.357 119.954 211.357 121.168 211.128 122.302 210.67 123.367 210.212 124.432 209.496 125.367 208.511 126.173 207.526 126.979 206.242 127.626 204.65 128.104 203.057 128.581 201.147 128.82 198.928 128.82L175.661 128.82 175.661 127.457C176.069 127.457 176.457 127.367 176.836 127.188 177.214 127.009 177.403 126.721 177.403 126.313L177.403 97.9611ZM198.181 108.659C199.395 108.659 200.53 108.41 201.595 107.903 202.659 107.395 203.187 106.36 203.187 104.798 203.187 103.992 203.037 103.345 202.729 102.867 202.43 102.389 202.042 102.011 201.595 101.733 201.147 101.454 200.609 101.275 200.002 101.205 199.395 101.136 198.788 101.096 198.181 101.096L184.687 101.096 184.687 108.679 198.181 108.679ZM198.032 123.218C200.351 123.218 201.943 122.84 202.809 122.083 203.664 121.327 204.092 120.262 204.092 118.899 204.092 117.336 203.535 116.172 202.42 115.416 201.306 114.66 199.435 114.281 196.808 114.281L184.677 114.281 184.677 123.228 198.012 123.228Z" fill="#FFFFFF" fill-rule="nonzero" fill-opacity="1" transform="matrix(1.00228 0 0 1 427 252.018)"/><path d="M217.815 127.457C218.422 127.357 218.91 127.069 219.298 126.581 219.676 126.104 219.965 125.656 220.174 125.258L231.468 100.628C231.767 99.9215 232.006 99.3543 232.185 98.9264 232.364 98.4985 232.454 98.0805 232.454 97.6725 232.454 97.374 232.394 97.175 232.265 97.1053 232.135 97.0257 231.996 96.9461 231.847 96.8366L231.847 95.4733 243.291 95.4733 243.291 96.8366C243.141 96.9361 242.972 97.0157 242.803 97.0655 242.624 97.1153 242.534 97.3143 242.534 97.6725 242.534 97.9711 242.644 98.3393 242.873 98.7672 243.102 99.1951 243.34 99.6927 243.589 100.25L255.869 126.024C256.118 126.482 256.397 126.81 256.705 127.009 257.004 127.208 257.332 127.367 257.69 127.467L257.69 128.83 246.923 128.83 246.923 127.696C247.172 127.696 247.44 127.616 247.719 127.467 247.998 127.318 248.137 127.039 248.137 126.631 248.137 126.332 248.087 126.054 247.988 125.795 247.888 125.546 247.759 125.218 247.61 124.81L245.56 120.491 229.339 120.491 227.219 124.581C227.02 124.989 226.851 125.357 226.722 125.676 226.592 126.004 226.533 126.293 226.533 126.551 226.533 126.959 226.662 127.208 226.911 127.308 227.16 127.407 227.518 127.457 227.976 127.457L227.976 128.82 217.815 128.82 217.815 127.457ZM243.131 114.878 236.991 102.151 231.608 114.878 243.131 114.878Z" fill="#FFFFFF" fill-rule="nonzero" fill-opacity="1" transform="matrix(1.00228 0 0 1 427 252.018)"/><path d="M272.995 127.457C273.244 127.457 273.503 127.367 273.752 127.188 274.001 127.009 274.13 126.721 274.13 126.313L274.13 101.076 264.278 101.076C263.87 101.076 263.492 101.175 263.144 101.374 262.785 101.573 262.616 101.902 262.616 102.36L261.253 102.36 261.253 93.6422 262.616 93.6422C262.616 94.3488 262.795 94.8264 263.144 95.0852 263.492 95.334 263.88 95.4633 264.278 95.4633L291.266 95.4633C291.674 95.4633 292.052 95.334 292.401 95.0852 292.749 94.8364 292.928 94.3488 292.928 93.6422L294.291 93.6422 294.291 102.36 292.928 102.36C292.928 101.902 292.749 101.573 292.401 101.374 292.042 101.175 291.664 101.076 291.266 101.076L281.414 101.076 281.414 126.313C281.414 127.069 281.872 127.447 282.778 127.447L282.778 128.81 272.995 128.81 272.995 127.447Z" fill="#FFFFFF" fill-rule="nonzero" fill-opacity="1" transform="matrix(1.00228 0 0 1 427 252.018)"/><path d="M323.548 95.4733C328.046 95.4733 331.559 96.2196 334.087 97.7123 336.615 99.205 337.878 101.743 337.878 105.325 337.878 106.688 337.63 107.903 337.122 108.967 336.615 110.032 335.948 110.948 335.112 111.734 334.276 112.52 333.36 113.147 332.345 113.625 331.33 114.102 330.295 114.47 329.241 114.719L336.664 125.556C337.072 126.114 337.51 126.531 337.988 126.81 338.465 127.089 338.983 127.308 339.54 127.457L339.54 128.82 327.947 128.82 327.947 127.457C328.604 127.457 328.932 127.228 328.932 126.77 328.932 126.263 328.554 125.487 327.798 124.422L321.807 115.476 311.268 115.476 311.268 126.313C311.268 126.721 311.428 127.009 311.766 127.188 312.094 127.367 312.413 127.457 312.711 127.457L312.711 128.82 302.631 128.82 302.631 127.457C303.536 127.457 303.994 127.079 303.994 126.322L303.994 97.9711C303.994 97.2148 303.536 96.8366 302.631 96.8366L302.631 95.4733 323.548 95.4733ZM323.399 109.873C328.355 109.873 330.823 108.311 330.823 105.176 330.823 103.912 330.226 102.917 329.042 102.18 327.857 101.444 325.977 101.086 323.399 101.086L311.428 101.086 311.428 109.873 323.399 109.873Z" fill="#FFFFFF" fill-rule="nonzero" fill-opacity="1" transform="matrix(1.00228 0 0 1 427 252.018)"/><path d="M344.168 127.457C344.775 127.357 345.262 127.069 345.65 126.581 346.028 126.104 346.317 125.656 346.526 125.258L357.821 100.628C358.119 99.9215 358.358 99.3543 358.537 98.9264 358.716 98.4985 358.806 98.0805 358.806 97.6725 358.806 97.374 358.746 97.175 358.617 97.1053 358.488 97.0257 358.348 96.9461 358.199 96.8366L358.199 95.4733 369.643 95.4733 369.643 96.8366C369.494 96.9361 369.325 97.0157 369.155 97.0655 368.976 97.1153 368.887 97.3143 368.887 97.6725 368.887 97.9711 368.996 98.3393 369.225 98.7672 369.454 99.1951 369.693 99.6927 369.942 100.25L382.222 126.024C382.47 126.482 382.749 126.81 383.057 127.009 383.356 127.208 383.684 127.367 384.043 127.467L384.043 128.83 373.275 128.83 373.275 127.696C373.524 127.696 373.793 127.616 374.071 127.467 374.35 127.318 374.489 127.039 374.489 126.631 374.489 126.332 374.44 126.054 374.34 125.795 374.241 125.546 374.111 125.218 373.962 124.81L371.912 120.491 355.691 120.491 353.572 124.581C353.373 124.989 353.203 125.357 353.074 125.676 352.945 126.004 352.885 126.293 352.885 126.551 352.885 126.959 353.014 127.208 353.263 127.308 353.512 127.407 353.87 127.457 354.328 127.457L354.328 128.82 344.168 128.82 344.168 127.457ZM369.474 114.878 363.334 102.151 357.95 114.878 369.474 114.878Z" fill="#FFFFFF" fill-rule="nonzero" fill-opacity="1" transform="matrix(1.00228 0 0 1 427 252.018)"/><path d="M417.688 105.027C417.688 104.927 417.678 104.828 417.648 104.728 417.618 104.629 417.609 104.499 417.609 104.35 417.609 104.101 417.36 103.753 416.852 103.325 416.345 102.897 415.628 102.479 414.693 102.071 413.757 101.663 412.663 101.325 411.399 101.046 410.135 100.767 408.742 100.628 407.229 100.628 405.408 100.628 403.756 100.867 402.264 101.345 400.771 101.822 399.467 102.549 398.363 103.504 397.248 104.469 396.392 105.654 395.785 107.067 395.178 108.48 394.88 110.102 394.88 111.923 394.88 113.744 395.218 115.366 395.905 116.809 396.591 118.252 397.487 119.486 398.592 120.521 399.706 121.556 400.97 122.342 402.383 122.869 403.796 123.397 405.239 123.665 406.702 123.665 408.065 123.665 409.458 123.486 410.871 123.138 412.285 122.78 413.568 122.372 414.733 121.884 415.897 121.407 416.842 120.889 417.579 120.332 418.315 119.774 418.673 119.267 418.673 118.819L418.673 118.212C418.673 117.914 418.643 117.655 418.594 117.456L419.43 116.7 425.042 124.73 424.286 125.108C423.679 124.86 423.251 124.73 423.002 124.73 422.594 124.73 421.937 124.959 421.032 125.417 420.126 125.875 418.972 126.392 417.579 126.969 416.186 127.547 414.573 128.044 412.722 128.452 410.871 128.86 408.822 129.059 406.543 129.059 404.264 129.059 401.915 128.731 399.646 128.074 397.367 127.417 395.347 126.372 393.586 124.929 391.815 123.486 390.382 121.695 389.267 119.546 388.153 117.396 387.595 114.908 387.595 112.082 387.595 109.256 388.153 106.778 389.267 104.658 390.382 102.539 391.845 100.757 393.666 99.3145 395.487 97.8716 397.567 96.7968 399.915 96.0903 402.264 95.3837 404.682 95.0255 407.15 95.0255 409.07 95.0255 410.822 95.2046 412.414 95.5529 414.006 95.9111 415.409 96.3092 416.623 96.767 417.837 97.2247 418.843 97.6228 419.659 97.981 420.465 98.3393 421.052 98.5084 421.4 98.5084 421.649 98.5084 421.868 98.4288 422.047 98.2796 422.226 98.1303 422.415 98.0009 422.614 97.9014L423.52 98.4288 418.514 105.634 417.678 105.027Z" fill="#FFFFFF" fill-rule="nonzero" fill-opacity="1" transform="matrix(1.00228 0 0 1 427 252.018)"/></g></g></g></g></g></svg>